# xmcd
#
# Track frame offsets:
#	150
#	19301
#	32707
#	55720
#	69560
#	93096
#	113991
#	131197
#	149566
#	170562
#	182492
#	200847
#	223188
#	245718
#	266323
#	290490
#	311556
#	315875
#
# Disc length: 4414 seconds
#
# Revision: 1
# Processed by: cddbd v1.5.2PL0 Copyright (c) Steve Scherf et al.
# Submitted via: audiograbber 1.83.01
#
DISCID=13113c12
DTITLE=Leadbelly - The Remaining Library Of Congress Recordings Vol. 3 1935
DYEAR=1997
DGENRE=Blues
TTITLE0=Governor O. K. Allen (46-A)
TTITLE1=Ha-Ha This-A-Way (49-A)
TTITLE2=Alabama Bound (49-B)
TTITLE3=In Dem Long Hot Summer Days (50-A)
TTITLE4=I'm All Out An Down (144-A)
TTITLE5=De Kalb Blues (144-B)
TTITLE6=Ha-Ha This-A-Way (145-A)
TTITLE7=Dear Old Daddy (Interpreting Jimmy Rogers) (in 4 parts) (145-B-1/-2/-3/
TTITLE7=4)
TTITLE8=I'm Gonna Hold It In Her While She's Young And Tender (146-A)
TTITLE9=What's You Goin' Do With Your Long Tall Daddy ? (146-B)
TTITLE10=Dick Licker's Holler (147-A)
TTITLE11=Billy In The Lowlands - Here Rattler Here (147-B)
TTITLE12=Frankie And Albert (148-A)
TTITLE13=Frankie And Albert (148-B)
TTITLE14=Send Down Your Hand (149-A)
TTITLE15=Shorty George (149-B)
TTITLE16=Pick A Bale O' Cotton (150-B-1)
TTITLE17=Elnora (150-B-2)
EXTD=
EXTT0=
EXTT1=
EXTT2=
EXTT3=
EXTT4=
EXTT5=
EXTT6=
EXTT7=
EXTT8=
EXTT9=
EXTT10=
EXTT11=
EXTT12=
EXTT13=
EXTT14=
EXTT15=
EXTT16=
EXTT17=
PLAYORDER=
